# AST/ASF file generated using VICON BodyLanguage
# -----------------------------------------------
:version 1.10
:name VICON
:units
  mass 1.0
  length 0.45
  angle deg
:documentation
   .ast/.asf automatically generated from VICON data using
   VICON BodyBuilder and BodyLanguage model FoxedUp or BRILLIANT.MOD
:root
   order TX TY TZ RX RY RZ
   axis XYZ
   position 0 0 0  
   orientation 0 0 0 
:bonedata
  begin
     id 1 
     name lhipjoint
     direction 0.822369 -0.411937 0.392449 
     length 3.8167 
     axis 0 0 0  XYZ
  end
  begin
     id 2 
     name lfemur
     direction 0.34202 -0.939693 0  
     length 6.16791  
     axis 0 0 20  XYZ
    dof rx ry rz
    limits (-160.0 20.0)
           (-70.0 70.0)
           (-60.0 70.0)
  end
  begin
     id 3 
     name ltibia
     direction 0.34202 -0.939693 0   
     length 7.07101   
     axis 0 0 20   XYZ
    dof rx
    limits (-10.0 170.0)
  end
  begin
     id 4 
     name lfoot
     direction 0.028254 -0.0776273 0.996582   
     length 1.66799   
     axis -90 7.62852e-016 20   XYZ
    dof rx rz
    limits (-45.0 90.0)
           (-70.0 20.0)
  end
  begin
     id 5 
     name ltoes
     direction 1.53483e-011 -4.21688e-011 1   
     length 0.851674   
     axis -90 7.62852e-016 20   XYZ
    dof rx
    limits (-90.0 20.0)
  end
  begin
     id 6 
     name rhipjoint
     direction -0.822466 -0.411836 0.392353   
     length 3.81764  
     axis 0 0 0  XYZ 
  end
  begin
     id 7 
     name rfemur
     direction -0.34202 -0.939693 0   
     length 6.28636   
     axis 0 0 -20   XYZ
    dof rx ry rz
    limits (-160.0 20.0)
           (-70.0 70.0)
           (-70.0 60.0)
  end
  begin
     id 8 
     name rtibia
     direction -0.34202 -0.939693 0   
     length 6.85621   
     axis 0 0 -20   XYZ
    dof rx
    limits (-10.0 170.0)
 end
 begin
     id 9 
     name rfoot
     direction -0.0553036 -0.151945 0.98684   
     length 1.57293  
     axis -90 -7.62852e-016 -20   XYZ
    dof rx rz
    limits (-45.0 90.0)
           (-20.0 70.0)
  end
  begin
     id 10 
     name rtoes
     direction -1.53592e-011 -4.21964e-011 1   
     length 0.802812   
     axis -90 -7.62852e-016 -20   XYZ
    dof rx
    limits (-90.0 20.0)
  end
  begin
     id 11 
     name lowerback
     direction 0.00654913 0.996475 -0.0836396   
     length 1.97212   
     axis 0 0 0   XYZ
    dof rx ry rz
    limits (-20.0 45.0)
           (-30.0 30.0)
           (-30.0 30.0)
  end
  begin
     id 12 
     name upperback
     direction 0.0111875 0.994527 0.103877   
     length 1.89704   
     axis 0 0 0   XYZ
    dof rx ry rz
    limits (-20.0 45.0)
           (-30.0 30.0)
           (-30.0 30.0)
  end
  begin
     id 13 
     name thorax
     direction 0.00473652 0.989004 0.147814   
     length 1.94516   
     axis 0 0 0   XYZ
    dof rx ry rz
    limits (-20.0 45.0)
           (-30.0 30.0)
           (-30.0 30.0)
  end
  begin
     id 14 
     name lowerneck
     direction -0.00925808 0.999011 0.0434791   
     length 1.81771   
     axis 0 0 0   XYZ
    dof rx ry rz
    limits (-20.0 45.0)
           (-30.0 30.0)
           (-30.0 30.0)
  end
  begin
     id 15 
     name upperneck
     direction 0.00451595 0.964412 -0.264365   
     length 1.80434   
     axis 0 0 0   XYZ
    dof rx ry rz
    limits (-20.0 45.0)
           (-30.0 30.0)
           (-30.0 30.0)
  end
  begin
     id 16
     name head
     direction -0.00110849 0.995756 -0.0920241  
     length 1.84006  
     axis 0 0 0   XYZ
    dof rx ry rz
    limits (-20.0 45.0)
           (-30.0 30.0)
           (-30.0 30.0)
  end
  begin
     id 17 
     name lclavicle
     direction 0.921253 0.385213 0.0538957  
     length 3.67415  
     axis 0 0 0   XYZ
    dof ry rz
    limits (-20.0 10.0)
           (0.0 20.0)
  end
  begin
     id 18 
     name lhumerus
     direction 1 -4.48961e-011 6.73441e-028   
     length 4.32712   
     axis 180 -30 -90   XYZ
    dof rx ry rz
    limits (-60.0 90.0)
           (-90.0 90.0)
           (-90.0 90.0)
  end
  begin
     id 19
     name lradius
     direction 1 -4.48985e-011 -9.53507e-028   
     length 3.28587   
     axis 180 -30 -90   XYZ
    dof rx
    limits (-10.0 170.0)
  end
  begin
     id 20
     name lwrist
     direction 1 -4.48951e-011 -4.67472e-027   
     length 1.64293   
     axis 1.65735e-015 90 90   XYZ
    dof ry
    limits (-180.0 0.0)
 end
  begin
     id 21 
     name lhand
     direction 1 -4.48946e-011 -9.34945e-027   
     length 0.433158   
     axis 5.96574e-015 90 90   XYZ
    dof rx rz
    limits (-90.0 90.0)
           (-45.0 45.0)
  end
  begin
     id 22 
     name lfingers
     direction 1 -4.48882e-011 -1.86989e-026   
     length 0.349224   
     axis 1.19315e-014 90 90   XYZ
    dof rx
    limits (0.0 90.0)
  end
  begin
     id 23
     name lthumb
     direction 0.707107 -6.3493e-011 0.707107   
     length 0.501417   
     axis -90 45 2.85299e-015   XYZ
    dof rx rz
    limits (-45.0 45.0)
           (-45.0 45.0)
  end
  begin
     id 24 
     name rclavicle
     direction -0.884378 0.46502 -0.0403866   
     length 3.50218  
     axis 0 0 0   XYZ 
    dof ry rz
    limits (-10.0 20.0)
           (-20.0 0.0)
  end
  begin
     id 25 
     name rhumerus
     direction -1 -4.48964e-011 1.58188e-027  
     length 4.29104   
     axis 180 30 90   XYZ
    dof rx ry rz
    limits (-90.0 60.0)
           (-90.0 90.0)
           (-90.0 90.0)
  end
  begin
     id 26 
     name rradius
     direction -1 -4.48978e-011 -1.9722e-027   
     length 3.2272   
     axis 180 30 90   XYZ
    dof rx
    limits (-10.0 170.0)
  end
  begin
     id 27 
     name rwrist
     direction -1 -4.48969e-011 -4.67472e-027   
     length 1.6136   
     axis 1.65735e-015 -90 -90   XYZ
    dof ry
    limits (-180.0 0.0)
  end
  begin
     id 28
     name rhand
     direction -1 -4.48846e-011 -9.34945e-027   
     length 0.543623   
     axis 5.96574e-015 -90 -90   XYZ
    dof rx rz
    limits (-90.0 90.0)
           (-45.0 45.0)
  end
  begin
     id 29
     name rfingers
     direction -1 -4.49074e-011 -1.86989e-026   
     length 0.438283   
     axis 1.19315e-014 -90 -90   XYZ
    dof rx
    limits (0.0 90.0)
  end
  begin
     id 30
     name rthumb
     direction -0.707107 -6.34834e-011 0.707107   
     length 0.629289   
     axis -90 -45 -2.85299e-015   XYZ
    dof rx rz
    limits (-45.0 45.0)
           (-45.0 45.0)
  end
:hierarchy
  begin
    root lhipjoint rhipjoint lowerback
    lhipjoint lfemur
    lfemur ltibia
    ltibia lfoot
    lfoot ltoes
    rhipjoint rfemur
    rfemur rtibia
    rtibia rfoot
    rfoot rtoes
    lowerback upperback
    upperback thorax
    thorax lowerneck lclavicle rclavicle
    lowerneck upperneck
    upperneck head
    lclavicle lhumerus
    lhumerus lradius
    lradius lwrist
    lwrist lhand lthumb
    lhand lfingers
    rclavicle rhumerus
    rhumerus rradius
    rradius rwrist
    rwrist rhand rthumb
    rhand rfingers
  end

#!OML:ASF H:\GeneralSubjects\Female5\Project 1\Capture day 1\Session 1\Female5.ASF
:FULLY-SPECIFIED
:DEGREES
103
root -32.6551 16.1302 3.15779 -175.385 -4.02527 -178.579
lowerback 6.17401 1.88226 2.74423
upperback -11.3007 2.16646 2.30051
thorax -16.0536 0.419054 0.761489
lowerneck -15.3538 5.42091 0.875961
upperneck 36.1085 8.39649 -10.9283
head 16.0558 0.642021 -3.80888
rclavicle 8.34896e-015 -4.69132e-014
rhumerus -49.9448 20.1417 -42.3757
rradius 82.6724
rwrist -86.2886
rhand -18.7529 -29.3642
rfingers 7.12502
rthumb 7.54365 -59.2097
lclavicle 8.34896e-015 -4.69132e-014
lhumerus -56.6365 22.3143 30.2302
lradius 55.9033
lwrist 55.2878
lhand -12.5503 48.5096
lfingers 7.12502
lthumb 13.5266 78.0503
rfemur 0 0 0
rtibia 0
rfoot 0 0
rtoes 0
lfemur -17.9517 -16.2764 -11.8917
ltibia 15.7628
lfoot -22.778 22.7806
ltoes -62.01
104
root -32.6516 16.1359 3.15521 -175.464 -4.06942 -178.551
lowerback 6.18947 1.86469 2.84025
upperback -11.337 2.14969 2.29816
thorax -16.1056 0.395584 0.710267
lowerneck -15.0841 5.46105 0.766432
upperneck 36.0542 8.44981 -10.9438
head 15.9627 0.644641 -3.78565
rclavicle -4.96962e-015 -5.1684e-014
rhumerus -50.1659 20.2819 -41.5988
rradius 82.6077
rwrist -87.1727
rhand -19.3402 -29.0909
rfingers 7.12502
rthumb 6.9768 -58.9559
lclavicle -4.96962e-015 -5.1684e-014
lhumerus -56.8389 22.2869 29.6728
lradius 55.881
lwrist 56.0031
lhand -15.4038 51.7437
lfingers 7.12502
lthumb 10.7752 81.4473
rfemur 0 0 0
rtibia 0
rfoot 0 0
rtoes 0
lfemur -17.822 -16.491 -11.8496
ltibia 15.708
lfoot -23.7609 22.1032
ltoes -61.0641
105
root -32.6506 16.1427 3.15292 -175.491 -4.11668 -178.701
lowerback 6.18535 1.86009 2.74565
upperback -11.3763 2.12003 2.23865
thorax -16.1528 0.386404 0.702944
lowerneck -14.8677 5.49383 0.774744
upperneck 36.0114 8.47855 -10.9869
head 15.8944 0.652283 -3.80031
rclavicle -1.21259e-014 1.43125e-014
rhumerus -50.3222 20.4011 -41.011
rradius 82.3214
rwrist -87.8705
rhand -20.2972 -28.8113
rfingers 7.12502
rthumb 6.05293 -58.7049
lclavicle -1.21259e-014 1.43125e-014
lhumerus -56.9073 22.2274 29.1567
lradius 55.6838
lwrist 56.432
lhand -20.375 34.4534
lfingers 7.12502
lthumb 5.97783 64.349
rfemur 0 0 0
rtibia 0
rfoot 0 0
rtoes 0
lfemur -17.7063 -16.6764 -12.0521
ltibia 15.5926
lfoot -23.5315 22.463
ltoes -61.7999
106
root -32.6522 16.151 3.15069 -175.48 -4.16834 -178.888
lowerback 6.15654 1.88388 2.35316
upperback -11.369 2.10127 2.2307
thorax -16.1398 0.42791 0.915629
lowerneck -14.9722 5.51892 1.11961
upperneck 36.0417 8.50885 -11.2132
head 15.9746 0.680576 -3.96093
rclavicle 9.93923e-016 -3.73715e-014
rhumerus -50.3748 20.2537 -40.4788
rradius 81.69
rwrist -88.1737
rhand -21.0585 -28.0457
rfingers 7.12502
rthumb 5.31784 -57.959
lclavicle 9.93923e-016 -3.73715e-014
lhumerus -56.9185 22.2168 28.8145
lradius 55.59
lwrist 56.495
lhand -20.4281 34.4525
lfingers 7.12502
lthumb 5.92655 64.3496
rfemur 0 0 0
rtibia 0
rfoot 0 0
rtoes 0
lfemur -17.6296 -16.8601 -12.3005
ltibia 15.4753
lfoot -22.9044 23.1791
ltoes -62.9419
107
root -32.654 16.1581 3.14933 -175.498 -4.25732 -178.983
lowerback 6.16313 1.88249 2.27163
upperback -11.3799 2.08657 2.20726
thorax -16.1599 0.429399 0.937538
lowerneck -15.0136 5.52801 1.1463
upperneck 36.1208 8.54003 -11.3107
head 16.0386 0.670593 -4.01326
rclavicle -1.70955e-014 1.66979e-014
rhumerus -50.6546 20.2232 -39.9915
rradius 81.1392
rwrist -88.0962
rhand -20.5198 -27.7828
rfingers 7.12502
rthumb 5.838 -57.6824
lclavicle -1.70955e-014 1.66979e-014
lhumerus -57.0971 22.0755 28.5178
lradius 55.6541
lwrist 56.6798
lhand -20.6057 35.0555
lfingers 7.12502
lthumb 5.75505 64.9573
rfemur 0 0 0
rtibia 0
rfoot 0 0
rtoes 0
lfemur -17.566 -17.0224 -12.4332
ltibia 15.3871
lfoot -23.2382 22.9502
ltoes -62.8674
108
root -32.6559 16.1623 3.14888 -175.549 -4.3608 -179.016
lowerback 6.17777 1.84482 2.24487
upperback -11.3569 2.03801 2.21606
thorax -16.1421 0.413534 0.970585
lowerneck -15.2509 5.51727 1.03493
upperneck 36.3421 8.56674 -11.3345
head 16.2119 0.631147 -4.02192
rclavicle -1.41137e-014 -1.19271e-014
rhumerus -50.7847 20.5086 -39.4814
rradius 80.7078
rwrist -88.2847
rhand -19.5002 -28.3427
rfingers 7.12502
rthumb 6.82232 -58.2127
lclavicle -1.41137e-014 -1.19271e-014
lhumerus -57.2845 22.0235 28.1805
lradius 55.5135
lwrist 56.996
lhand -20.8147 35.2442
lfingers 7.12502
lthumb 5.55323 65.1515
rfemur 0 0 0
rtibia 0
rfoot 0 0
rtoes 0
lfemur -17.4828 -17.2889 -12.4843
ltibia 15.3195
lfoot -24.3306 22.1435
ltoes -60.772
109
root -32.6557 16.1656 3.14791 -175.591 -4.41645 -179.077
lowerback 6.16808 1.81336 2.15123
upperback -11.3415 1.98507 2.21857
thorax -16.12 0.402537 1.03527
lowerneck -15.4973 5.49012 0.985375
upperneck 36.6033 8.55115 -11.3711
head 16.4099 0.57677 -4.06009
rclavicle 2.40529e-014 -9.54166e-015
rhumerus -51.0576 20.6596 -39.1979
rradius 80.366
rwrist -88.478
rhand -19.1151 -28.7169
rfingers 7.12502
rthumb 7.19401 -58.5747
lclavicle 2.40529e-014 -9.54166e-015
lhumerus -57.4722 21.9758 27.7894
lradius 55.214
lwrist 57.1031
lhand -20.9413 35.4837
lfingers 7.12502
lthumb 5.43104 65.3941
rfemur 0 0 0
rtibia 0
rfoot 0 0
rtoes 0
lfemur -17.3849 -17.5954 -12.5652
ltibia 15.2564
lfoot -24.8686 21.9819
ltoes -60.595
110
root -32.6532 16.1688 3.14652 -175.642 -4.43723 -179.048
lowerback 6.17716 1.82104 2.10058
upperback -11.3431 1.99148 2.24066
thorax -16.1313 0.413424 1.08719
lowerneck -15.6033 5.46233 1.0127
upperneck 36.7879 8.48585 -11.3269
head 16.5248 0.540795 -4.07511
rclavicle -8.34896e-015 3.49861e-014
rhumerus -51.4002 20.7047 -39.0377
rradius 79.8101
rwrist -88.3972
rhand -19.0316 -28.5836
rfingers 7.12502
rthumb 7.27463 -58.4386
lclavicle -8.34896e-015 3.49861e-014
lhumerus -57.6713 21.8663 27.4621
lradius 55.0059
lwrist 56.9822
lhand -20.8925 35.6702
lfingers 7.12502
lthumb 5.47812 65.5794
rfemur 0 0 0
rtibia 0
rfoot 0 0
rtoes 0
lfemur -17.2623 -17.665 -12.5701
ltibia 15.1176
lfoot -24.0749 22.7464
ltoes -62.0773
111
root -32.6533 16.1726 3.1469 -175.615 -4.45957 -179.082
lowerback 6.11517 1.82798 1.99516
upperback -11.3411 1.98493 2.26124
thorax -16.0931 0.424748 1.17108
lowerneck -15.5883 5.45746 1.06013
upperneck 36.7738 8.46744 -11.3239
head 16.5135 0.54473 -4.08352
rclavicle -3.598e-014 3.97569e-015
rhumerus -51.6681 20.8068 -38.9646
rradius 79.2027
rwrist -88.2636
rhand -19.0664 -28.6133
rfingers 7.12502
rthumb 7.24107 -58.4694
lclavicle -3.598e-014 3.97569e-015
lhumerus -57.9399 21.7925 27.2116
lradius 54.8928
lwrist 56.9818
lhand -20.8101 36.0003
lfingers 7.12502
lthumb 5.55773 65.9074
rfemur 0 0 0
rtibia 0
rfoot 0 0
rtoes 0
lfemur -17.202 -17.7166 -12.6337
ltibia 14.9285
lfoot -23.5757 23.0898
ltoes -62.3716
112
root -32.656 16.1753 3.14951 -175.477 -4.49033 -179.313
lowerback 5.95627 1.82269 1.73593
upperback -11.3472 1.92815 2.21202
thorax -16.0032 0.425892 1.27265
lowerneck -15.5216 5.45151 1.12504
upperneck 36.6497 8.45487 -11.3518
head 16.4352 0.561876 -4.09674
rclavicle 1.64991e-014 -1.98785e-014
rhumerus -52.0329 20.8689 -39.0921
rradius 78.7596
rwrist -88.03
rhand -18.9757 -28.9719
rfingers 7.12502
rthumb 7.32858 -58.825
lclavicle 1.64991e-014 -1.98785e-014
lhumerus -58.1913 21.707 27.0299
lradius 54.7193
lwrist 57.0116
lhand -20.7758 36.5859
lfingers 7.12502
lthumb 5.59086 66.4922
rfemur 0 0 0
rtibia 0
rfoot 0 0
rtoes 0
lfemur -17.2546 -17.8862 -12.8864
ltibia 14.7758
lfoot -23.6237 23.2158
ltoes -61.9754
113
root -32.652 16.1737 3.14997 -175.402 -4.50917 -179.398
lowerback 5.84313 1.8298 1.59543
upperback -11.3481 1.9091 2.1698
thorax -15.9331 0.430859 1.30796
lowerneck -15.4915 5.41002 1.1647
upperneck 36.5912 8.37649 -11.3178
head 16.3872 0.55188 -4.09493
rclavicle 2.18663e-015 7.23576e-014
rhumerus -52.5146 20.844 -39.4278
rradius 78.2289
rwrist -87.4665
rhand -18.9886 -28.9137
rfingers 7.12502
rthumb 7.31616 -58.7672
lclavicle 2.18663e-015 7.23576e-014
lhumerus -58.3648 21.633 26.8973
lradius 54.4477
lwrist 56.7483
lhand -20.8257 35.9947
lfingers 7.12502
lthumb 5.54262 65.9022
rfemur 0 0 0
rtibia 0
rfoot 0 0
rtoes 0
lfemur -17.2642 -18.0862 -12.9099
ltibia 14.6554
lfoot -23.8013 23.405
ltoes -62.6627
114
root -32.6407 16.1705 3.14766 -175.419 -4.48229 -179.277
lowerback 5.77051 1.84066 1.50479
upperback -11.3156 1.91958 2.24906
thorax -15.8526 0.45412 1.44543
lowerneck -15.5215 5.38137 1.17378
upperneck 36.6036 8.32398 -11.2767
head 16.3924 0.539443 -4.08727
rclavicle -3.97569e-015 1.59028e-014
rhumerus -52.722 20.9855 -39.7301
rradius 77.3227
rwrist -87.1339
rhand -19.0338 -28.5442
rfingers 7.12502
rthumb 7.27257 -58.3992
lclavicle -3.97569e-015 1.59028e-014
lhumerus -58.6429 21.7432 26.7471
lradius 54.196
lwrist 56.3054
lhand -20.9434 35.1023
lfingers 7.12502
lthumb 5.42903 65.0127
rfemur 0 0 0
rtibia 0
rfoot 0 0
rtoes 0
lfemur -17.1873 -18.1496 -12.6635
ltibia 14.5191
lfoot -24.6105 22.9756
ltoes -61.5964
115
root -32.636 16.1671 3.14848 -175.325 -4.45316 -179.322
lowerback 5.64625 1.84847 1.38172
upperback -11.3368 1.90354 2.266
thorax -15.8032 0.459599 1.53858
lowerneck -15.3862 5.39945 1.24677
upperneck 36.5353 8.34757 -11.3912
head 16.3386 0.546993 -4.14365
rclavicle -1.09332e-014 -3.26007e-014
rhumerus -53.3712 21.1718 -40.2605
rradius 76.8248
rwrist -87.0693
rhand -18.9554 -28.141
rfingers 7.12502
rthumb 7.34825 -57.9934
lclavicle -1.09332e-014 -3.26007e-014
lhumerus -59.013 21.723 26.6356
lradius 54.0456
lwrist 56.0608
lhand -20.9637 35.592
lfingers 7.12502
lthumb 5.40944 65.503
rfemur 0 0 0
rtibia 0
rfoot 0 0
rtoes 0
lfemur -17.2509 -18.2174 -12.6438
ltibia 14.4704
lfoot -25.1086 22.9059
ltoes -61.3031
116
root -32.6398 16.1595 3.15357 -175.106 -4.47066 -179.568
lowerback 5.5038 1.84802 1.24578
upperback -11.4098 1.85367 2.14202
thorax -15.7992 0.437409 1.48844
lowerneck -15.2432 5.40249 1.26528
upperneck 36.4555 8.31893 -11.3322
head 16.2535 0.557952 -4.11647
rclavicle -2.18663e-015 -3.26007e-014
rhumerus -53.8311 21.4094 -40.9989
rradius 76.2733
rwrist -86.9317
rhand -18.9603 -27.869
rfingers 7.12502
rthumb 7.34345 -57.7215
lclavicle -2.18663e-015 -3.26007e-014
lhumerus -59.3678 21.5267 26.6198
lradius 54.0045
lwrist 55.9239
lhand -21.1283 36.0917
lfingers 7.12502
lthumb 5.25044 66.0067
rfemur 0 0 0
rtibia 0
rfoot 0 0
rtoes 0
lfemur -17.4709 -18.3748 -12.874
ltibia 14.5435
lfoot -25.235 23.1323
ltoes -61.9749
117
root -32.6378 16.1454 3.15752 -175.012 -4.49033 -179.606
lowerback 5.51197 1.81929 1.32472
upperback -11.4072 1.81917 2.06737
thorax -15.7937 0.406975 1.36635
lowerneck -15.1966 5.3815 1.18858
upperneck 36.2199 8.31296 -11.2824
head 16.1109 0.581582 -4.05559
rclavicle -2.72335e-014 1.27222e-014
rhumerus -54.3236 21.3853 -41.8421
rradius 75.8126
rwrist -86.2363
rhand -18.8638 -27.6347
rfingers 7.12502
rthumb 7.4366 -57.484
lclavicle -2.72335e-014 1.27222e-014
lhumerus -59.7816 21.5242 26.6064
lradius 54.0824
lwrist 55.599
lhand -21.426 35.6503
lfingers 7.12502
lthumb 4.96306 65.5722
rfemur 0 0 0
rtibia 0
rfoot 0 0
rtoes 0
lfemur -17.5979 -18.4419 -12.8488
ltibia 14.608
lfoot -25.3561 22.9566
ltoes -62.2191
